%
M48
M72
T01C0.02362
T02C0.03200
T03C0.04000
T04C0.04700
%
T01
X102000Y138500
X114000Y123500
X122000Y118500
X137000Y118500
X143000Y112500
X147000Y127500
X154000Y133500
X175000Y102500
X128000Y85500
X122000Y140500
X126000Y150500
X113000Y171500
X99000Y177500
X87000Y160500
X119000Y201500
X119000Y209500
X112000Y224500
X94000Y209488
X70000Y227500
X136000Y191500
X144000Y184500
X152000Y190500
T02
X152000Y70500
X142000Y70500
X130000Y70500
X120000Y70500
T03
X145000Y90500
X155000Y90500
X165000Y90500
X175000Y90500
X172000Y125500
X172000Y135500
X172000Y145500
X172000Y155500
X172000Y165500
X172000Y175500
X172000Y185500
X172000Y195500
X172000Y205500
X172000Y220500
X162000Y220500
X152000Y220500
X142000Y220500
X132000Y220500
X122000Y220500
X33000Y224500
X33000Y214500
T04
X134945Y256114
X155811Y256114
M30
