G75*
%MOIN*%
%OFA0B0*%
%FSLAX25Y25*%
%IPPOS*%
%LPD*%
%AMOC8*
5,1,8,0,0,1.08239X$1,22.5*
%
%ADD10C,0.07400*%
%ADD11C,0.06400*%
%ADD12OC8,0.05600*%
%ADD13OC8,0.07100*%
%ADD14C,0.05000*%
%ADD15C,0.01600*%
%ADD16OC8,0.04362*%
%ADD17R,0.04362X0.04362*%
%ADD18C,0.04362*%
D10*
X0122000Y0220500D03*
X0132000Y0220500D03*
X0142000Y0220500D03*
X0152000Y0220500D03*
X0162000Y0220500D03*
X0172000Y0220500D03*
D11*
X0175200Y0205500D02*
X0168800Y0205500D01*
X0168800Y0195500D02*
X0175200Y0195500D01*
X0175200Y0185500D02*
X0168800Y0185500D01*
X0168800Y0175500D02*
X0175200Y0175500D01*
X0175200Y0165500D02*
X0168800Y0165500D01*
X0168800Y0155500D02*
X0175200Y0155500D01*
X0175200Y0145500D02*
X0168800Y0145500D01*
X0168800Y0135500D02*
X0175200Y0135500D01*
X0175200Y0125500D02*
X0168800Y0125500D01*
X0165000Y0093700D02*
X0165000Y0087300D01*
X0155000Y0087300D02*
X0155000Y0093700D01*
X0145000Y0093700D02*
X0145000Y0087300D01*
X0175000Y0087300D02*
X0175000Y0093700D01*
X0036200Y0214500D02*
X0029800Y0214500D01*
X0029800Y0224500D02*
X0036200Y0224500D01*
D12*
X0120000Y0070500D03*
X0130000Y0070500D03*
X0142000Y0070500D03*
X0152000Y0070500D03*
D13*
X0155811Y0256114D03*
X0134945Y0256114D03*
D14*
X0130000Y0070500D02*
X0142000Y0070500D01*
D15*
X0135000Y0079500D02*
X0128000Y0085500D01*
X0135000Y0079500D02*
X0155000Y0079500D01*
X0155000Y0090500D01*
X0165000Y0090500D02*
X0165000Y0119500D01*
X0154000Y0133500D01*
X0147000Y0127500D02*
X0147000Y0112500D01*
X0143000Y0112500D01*
X0137000Y0118500D02*
X0122000Y0118500D01*
X0114000Y0123500D02*
X0133000Y0123500D01*
X0155000Y0145500D01*
X0172000Y0145500D01*
X0165000Y0150500D02*
X0171000Y0155500D01*
X0172000Y0155500D01*
X0165000Y0150500D02*
X0137000Y0150500D01*
X0122000Y0140500D01*
X0126000Y0150500D02*
X0102000Y0150500D01*
X0102000Y0138500D01*
X0087000Y0160500D02*
X0087000Y0177500D01*
X0099000Y0177500D01*
X0107000Y0177500D01*
X0113000Y0171500D01*
X0119000Y0191500D02*
X0136000Y0191500D01*
X0144000Y0184500D02*
X0148000Y0208500D01*
X0152000Y0208500D01*
X0152000Y0220500D01*
X0142000Y0220500D02*
X0142000Y0228500D01*
X0107000Y0228500D01*
X0107000Y0215500D01*
X0094000Y0215500D01*
X0094000Y0209488D01*
X0104000Y0227500D02*
X0104000Y0232500D01*
X0135000Y0232500D01*
X0135000Y0250059D01*
X0134945Y0256114D01*
X0112000Y0224500D02*
X0112000Y0216500D01*
X0119000Y0209500D01*
X0119000Y0201500D01*
X0119000Y0191500D01*
X0104000Y0227500D02*
X0070000Y0227500D01*
X0152000Y0190500D02*
X0184000Y0190500D01*
X0184000Y0125500D01*
X0172000Y0125500D01*
X0175000Y0102500D02*
X0175000Y0090500D01*
D16*
X0175000Y0102500D03*
X0152000Y0190500D03*
D17*
X0154000Y0133500D03*
X0147000Y0127500D03*
X0137000Y0118500D03*
X0143000Y0112500D03*
X0122000Y0118500D03*
X0128000Y0085500D03*
X0070000Y0227500D03*
D18*
X0102000Y0138500D03*
X0114000Y0123500D03*
X0122000Y0140500D03*
X0126000Y0150500D03*
X0113000Y0171500D03*
X0099000Y0177500D03*
X0087000Y0160500D03*
X0119000Y0201500D03*
X0119000Y0209500D03*
X0112000Y0224500D03*
X0094000Y0209488D03*
X0136000Y0191500D03*
X0144000Y0184500D03*
M02*
